# File created by Blade
# Date/Time:  Fri Jan 16 17:25:32 2015
#---------------------------------------------------------
:version 1.10
:name HOM
:units
  mass 1.0
  length 1.000000
  angle deg
:documentation
     Acclaim Skeleton File
:root
   axis xyz
   order TX TY TZ RX RY RZ
   position 0.000000 0.000000 0.000000
   orientation 0 0 0
:bonedata
   begin
      id 1
      name Spine_dum
      direction 0.000000 1.000000 0.000000
      length 7.170412
      axis 0.0 0.0 0.0 xyz
   end
   begin
      id 2
      name LeftUpLeg_dum
      direction 1.000000 0.000000 0.000000
      length 4.318350
      axis 0.0 0.0 0.0 xyz
   end
   begin
      id 3
      name RightUpLeg_dum
      direction -1.000000 0.000000 0.000000
      length 4.318350
      axis 0.0 0.0 0.0 xyz
   end
   begin
      id 4
      name Spine
      direction 0.000000 1.000000 0.000000
      length 0.000000
      axis 0.0 0.0 0.0 xyz
      dof rx ry rz
   end
   begin
      id 5
      name Spine_dum1
      direction 0.000000 1.000000 0.000000
      length 14.276153
      axis 0.0 0.0 0.0 xyz
   end
   begin
      id 6
      name Spine_dum2
      direction 0.000000 1.000000 0.000000
      length 10.718243
      axis 0.0 0.0 0.0 xyz
   end
   begin
      id 7
      name Spine_dum3
      direction 0.000000 1.000000 0.000000
      length 10.718243
      axis 0.0 0.0 0.0 xyz
   end
   begin
      id 8
      name Head
      direction 0.000000 1.000000 0.000000
      length 4.527550
      axis 0.0 0.0 0.0 xyz
      dof rx ry rz
   end
   begin
      id 9
      name LeftShoulder
      direction 1.000000 0.000000 0.000000
      length 7.058872
      axis 0.0 0.0 -90.0 xyz
      dof rx ry rz
   end
   begin
      id 10
      name LeftArm
      direction 1.000000 0.000000 0.000000
      length 10.955525
      axis 0.0 0.0 -90.0 xyz
      dof rx ry rz
   end
   begin
      id 11
      name LeftForeArm
      direction 1.000000 0.000000 0.000000
      length 8.193716
      axis 0.0 0.0 -90.0 xyz
      dof ry rz rx
   end
   begin
      id 12
      name LeftHand
      direction 0.000000 0.000000 0.000000
      length 0.000000
      axis 0.0 0.0 -90.0 xyz
      dof rx ry rz
   end
   begin
      id 13
      name LeftHand_dum1
      direction 0.000000 0.000000 0.000000
      length 0.000000
      axis 0.0 0.0 -90.0 xyz
   end
   begin
      id 14
      name LeftHand_dum2
      direction 1.000000 0.000000 0.000000
      length 3.937000
      axis 0.0 0.0 -90.0 xyz
   end
   begin
      id 15
      name LeftHandThumb1
      direction 0.000000 0.000000 1.000000
      length 3.937000
      axis 0.0 0.0 -90.0 xyz
      dof rx rz ry
   end
   begin
      id 16
      name RightShoulder
      direction -1.000000 0.000000 0.000000
      length 7.058872
      axis 0.0 0.0 90.0 xyz
      dof rx ry rz
   end
   begin
      id 17
      name RightArm
      direction -1.000000 0.000000 0.000000
      length 10.955525
      axis 0.0 0.0 90.0 xyz
      dof rx ry rz
   end
   begin
      id 18
      name RightForeArm
      direction -1.000000 0.000000 0.000000
      length 8.193716
      axis 0.0 0.0 90.0 xyz
      dof ry rz rx
   end
   begin
      id 19
      name RightHand
      direction 0.000000 0.000000 0.000000
      length 0.000000
      axis 0.0 0.0 90.0 xyz
      dof rx ry rz
   end
   begin
      id 20
      name RightHand_dum1
      direction 0.000000 0.000000 0.000000
      length 0.000000
      axis 0.0 0.0 90.0 xyz
   end
   begin
      id 21
      name RightHand_dum2
      direction -1.000000 0.000000 0.000000
      length 3.937000
      axis 0.0 0.0 90.0 xyz
   end
   begin
      id 22
      name RightHandThumb1
      direction 0.000000 0.000000 1.000000
      length 3.937000
      axis 0.0 0.0 90.0 xyz
      dof rx rz ry
   end
   begin
      id 23
      name LeftUpLeg
      direction 0.000000 -1.000000 0.000000
      length 17.323638
      axis 0.0 0.0 0.0 xyz
      dof rx ry rz
   end
   begin
      id 24
      name LeftLeg
      direction 0.000000 -1.000000 0.000000
      length 16.270368
      axis 0.0 0.0 0.0 xyz
      dof rx ry rz
   end
   begin
      id 25
      name LeftFoot
      direction 0.000000 -0.258819 0.965926
      length 4.922846
      axis 15.0 0.0 0.0 xyz
      dof rx ry rz
   end
   begin
      id 26
      name LeftToeBase
      direction 0.000000 0.000000 1.000000
      length 2.952750
      axis 0.0 0.0 0.0 xyz
      dof rx ry rz
   end
   begin
      id 27
      name RightUpLeg
      direction 0.000000 -1.000000 0.000000
      length 17.323638
      axis 0.0 0.0 0.0 xyz
      dof rx ry rz
   end
   begin
      id 28
      name RightLeg
      direction 0.000000 -1.000000 0.000000
      length 16.270368
      axis 0.0 0.0 0.0 xyz
      dof rx ry rz
   end
   begin
      id 29
      name RightFoot
      direction 0.000000 -0.258819 0.965926
      length 4.922846
      axis 15.0 0.0 0.0 xyz
      dof rx ry rz
   end
   begin
      id 30
      name RightToeBase
      direction 0.000000 0.000000 1.000000
      length 2.952750
      axis 0.0 0.0 0.0 xyz
      dof rx ry rz
   end
:hierarchy
   begin
      root Spine_dum LeftUpLeg_dum RightUpLeg_dum
      Spine_dum Spine
      LeftUpLeg_dum LeftUpLeg
      RightUpLeg_dum RightUpLeg
      Spine Spine_dum1 Spine_dum2 Spine_dum3
      Spine_dum1 Head
      Spine_dum2 LeftShoulder
      Spine_dum3 RightShoulder
      LeftShoulder LeftArm
      LeftArm LeftForeArm
      LeftForeArm LeftHand
      LeftHand LeftHand_dum1 LeftHand_dum2
      LeftHand_dum1 LeftHandThumb1
      RightShoulder RightArm
      RightArm RightForeArm
      RightForeArm RightHand
      RightHand RightHand_dum1 RightHand_dum2
      RightHand_dum1 RightHandThumb1
      LeftUpLeg LeftLeg
      LeftLeg LeftFoot
      LeftFoot LeftToeBase
      RightUpLeg RightLeg
      RightLeg RightFoot
      RightFoot RightToeBase
   end

# File created by Blade
# Date/Time:  Fri Jan 16 17:25:22 2015
# Frame Rate: 120.000 fps
#------------------------------------------------------
:FULLY-SPECIFIED
:DEGREES
382
root -5.892794 35.245816 -10.716503 -3.060329 -8.714155 -6.241781
Spine 3.868259 1.464661 9.241870
Head 3.300787 9.503480 -4.295485
LeftShoulder -20.166099 15.524017 -15.395159
LeftArm 25.981422 15.994614 -67.127666
LeftForeArm 11.349059 -0.000000 15.165261
LeftHand 1.065933 0.000000 -7.526257
LeftHandThumb1 -26.253704 0.000000 33.147579
RightShoulder -3.292360 -3.255661 3.843095
RightArm 11.829401 -38.224946 63.733960
RightForeArm -19.319965 -0.000000 25.559979
RightHand 0.582475 -0.000000 4.527639
RightHandThumb1 -24.326973 -0.000000 -32.862282
LeftUpLeg 12.793654 17.197654 8.849077
LeftLeg -8.977308 -0.000000 0.000000
LeftFoot -14.694611 28.449487 -7.763306
LeftToeBase 23.003933 -0.000000 -0.000000
RightUpLeg 8.351949 -4.840261 3.195632
RightLeg -4.249678 -0.000000 0.000000
RightFoot -3.548854 -22.738144 5.323598
RightToeBase 13.653882 -0.000000 -0.000000
383
root -5.894116 35.246068 -10.717933 -3.059749 -8.712671 -6.241304
Spine 3.866990 1.466209 9.237679
Head 3.287290 9.507010 -4.285945
LeftShoulder -20.182599 15.529838 -15.409699
LeftArm 26.044139 15.988117 -67.070327
LeftForeArm 11.536233 -0.000000 15.200976
LeftHand 1.076877 -0.000000 -7.014046
LeftHandThumb1 -26.253704 0.000000 33.147579
RightShoulder -3.288919 -3.260584 3.844043
RightArm 11.846759 -38.262551 63.720297
RightForeArm -19.323447 -0.000000 25.558877
RightHand 0.542601 -0.000000 4.482213
RightHandThumb1 -24.326973 -0.000000 -32.862282
LeftUpLeg 12.787016 17.199236 8.851433
LeftLeg -8.967754 -0.000000 0.000000
LeftFoot -14.699142 28.436911 -7.765674
LeftToeBase 23.030233 -0.000000 -0.000000
RightUpLeg 8.347190 -4.845940 3.198307
RightLeg -4.247115 -0.000000 0.000000
RightFoot -3.545762 -22.742997 5.317100
RightToeBase 13.697988 -0.000000 -0.000000
384
root -5.896011 35.246096 -10.718393 -3.062190 -8.703898 -6.243419
Spine 3.859021 1.472085 9.236132
Head 3.289556 9.522287 -4.269937
LeftShoulder -20.165409 15.527434 -15.403544
LeftArm 26.062196 15.965690 -67.053408
LeftForeArm 11.501800 -0.000000 15.240793
LeftHand 1.091079 0.000000 -6.970493
LeftHandThumb1 -26.253704 0.000000 33.147579
RightShoulder -3.280034 -3.264263 3.843661
RightArm 11.841967 -38.290939 63.726507
RightForeArm -19.315850 -0.000000 25.556612
RightHand 0.517903 0.000000 4.458611
RightHandThumb1 -24.326973 -0.000000 -32.862282
LeftUpLeg 12.782955 17.205350 8.859028
LeftLeg -8.959312 -0.000000 0.000000
LeftFoot -14.699510 28.423665 -7.749542
LeftToeBase 23.011888 -0.000000 -0.000000
RightUpLeg 8.350578 -4.857785 3.202128
RightLeg -4.245896 -0.000000 0.000000
RightFoot -3.540204 -22.736462 5.292543
RightToeBase 13.670151 -0.000000 -0.000000
385
root -5.896492 35.246123 -10.720198 -3.063260 -8.692600 -6.240444
Spine 3.858541 1.468110 9.230140
Head 3.279813 9.531423 -4.253952
LeftShoulder -20.160195 15.512002 -15.402029
LeftArm 26.083573 15.992152 -67.014646
LeftForeArm 11.415779 -0.000000 15.283353
LeftHand 1.093367 -0.000000 -7.034494
LeftHandThumb1 -26.253704 0.000000 33.147579
RightShoulder -3.271173 -3.256947 3.840978
RightArm 11.842533 -38.330524 63.721789
RightForeArm -19.293403 -0.000000 25.560585
RightHand 0.502124 0.000000 4.441719
RightHandThumb1 -24.326973 -0.000000 -32.862282
LeftUpLeg 12.771139 17.220198 8.858990
LeftLeg -8.945524 -0.000000 0.000000
LeftFoot -14.701896 28.401354 -7.758343
LeftToeBase 23.062105 -0.000000 -0.000000
RightUpLeg 8.344200 -4.867477 3.198702
RightLeg -4.238069 -0.000000 0.000000
RightFoot -3.547026 -22.738150 5.308079
RightToeBase 13.634664 -0.000000 -0.000000
386
root -5.896602 35.246433 -10.720512 -3.063972 -8.685000 -6.236499
Spine 3.849433 1.469275 9.228529
Head 3.275020 9.551780 -4.251892
LeftShoulder -20.156201 15.504961 -15.409451
LeftArm 26.098781 15.973214 -67.005185
LeftForeArm 11.403918 -0.000000 15.320903
LeftHand 1.112380 -0.000000 -7.006751
LeftHandThumb1 -26.253704 0.000000 33.147579
RightShoulder -3.266946 -3.280146 3.831861
RightArm 11.869169 -38.345617 63.718119
RightForeArm -19.298769 -0.000000 25.546828
RightHand 0.501409 -0.000000 4.393926
RightHandThumb1 -24.326973 -0.000000 -32.862282
LeftUpLeg 12.761098 17.226140 8.856203
LeftLeg -8.928778 -0.000000 0.000000
LeftFoot -14.705896 28.375053 -7.765591
LeftToeBase 23.033896 -0.000000 -0.000000
RightUpLeg 8.347255 -4.877733 3.195360
RightLeg -4.241521 -0.000000 0.000000
RightFoot -3.552614 -22.731113 5.318287
RightToeBase 13.662608 -0.000000 -0.000000
387
root -5.897695 35.246725 -10.721612 -3.065480 -8.672500 -6.237163
Spine 3.846930 1.481891 9.226353
Head 3.263789 9.534019 -4.248941
LeftShoulder -20.141833 15.497572 -15.404466
LeftArm 26.121625 16.011995 -66.978009
LeftForeArm 11.194581 -0.000000 15.346521
LeftHand 1.062416 -0.000000 -7.344194
LeftHandThumb1 -26.253704 0.000000 33.147579
RightShoulder -3.271575 -3.267927 3.828899
RightArm 11.855045 -38.374444 63.725371
RightForeArm -19.291617 -0.000000 25.557237
RightHand 0.468800 -0.000000 4.405952
RightHandThumb1 -24.326973 -0.000000 -32.862282
LeftUpLeg 12.752627 17.213260 8.857765
LeftLeg -8.918821 -0.000000 0.000000
LeftFoot -14.707005 28.377649 -7.753337
LeftToeBase 23.049097 -0.000000 -0.000000
RightUpLeg 8.352392 -4.863775 3.199733
RightLeg -4.249499 -0.000000 0.000000
RightFoot -3.538343 -22.746654 5.302401
RightToeBase 13.674132 -0.000000 -0.000000
388
root -5.896859 35.246740 -10.722038 -3.066582 -8.671056 -6.233343
Spine 3.841260 1.479517 9.225574
Head 3.257065 9.544778 -4.250298
LeftShoulder -20.153815 15.488428 -15.418803
LeftArm 26.140141 16.039134 -66.953389
LeftForeArm 11.156673 -0.000000 15.390295
LeftHand 1.006133 -0.000000 -7.395664
LeftHandThumb1 -26.253704 0.000000 33.147579
RightShoulder -3.264273 -3.275656 3.824275
RightArm 11.876401 -38.421995 63.700975
RightForeArm -19.221655 -0.000000 25.557252
RightHand 0.522140 -0.000000 4.483923
RightHandThumb1 -24.326973 -0.000000 -32.862282
LeftUpLeg 12.751213 17.233420 8.855175
LeftLeg -8.918450 -0.000000 0.000000
LeftFoot -14.696736 28.367153 -7.749073
LeftToeBase 23.048552 -0.000000 -0.000000
RightUpLeg 8.352750 -4.867066 3.195092
RightLeg -4.251523 -0.000000 0.000000
RightFoot -3.538452 -22.753310 5.312489
RightToeBase 13.665704 -0.000000 -0.000000
389
root -5.896137 35.246799 -10.722391 -3.069454 -8.661493 -6.229871
Spine 3.836351 1.483443 9.228482
Head 3.245600 9.560632 -4.259577
LeftShoulder -20.151897 15.470843 -15.428243
LeftArm 26.144765 16.038599 -66.947909
LeftForeArm 11.298756 -0.000000 15.432565
LeftHand 0.983682 -0.000000 -7.179491
LeftHandThumb1 -26.253704 0.000000 33.147579
RightShoulder -3.261333 -3.283583 3.811638
RightArm 11.878174 -38.444734 63.700704
RightForeArm -19.260287 0.000000 25.575648
RightHand 0.453350 0.000000 4.346685
RightHandThumb1 -24.326973 -0.000000 -32.862282
LeftUpLeg 12.750797 17.223055 8.849991
LeftLeg -8.919148 -0.000000 0.000000
LeftFoot -14.690381 28.364945 -7.746396
LeftToeBase 23.051763 -0.000000 -0.000000
RightUpLeg 8.356616 -4.876607 3.189992
RightLeg -4.253634 -0.000000 0.000000
RightFoot -3.541801 -22.755377 5.300906
RightToeBase 13.664945 -0.000000 -0.000000
390
root -5.896129 35.246837 -10.723459 -3.071595 -8.649251 -6.228436
Spine 3.836862 1.479734 9.232073
Head 3.222866 9.568296 -4.274664
LeftShoulder -20.150813 15.468693 -15.445018
LeftArm 26.164865 16.033568 -66.940335
LeftForeArm 11.301296 -0.000000 15.470039
LeftHand 1.008751 -0.000000 -7.027681
LeftHandThumb1 -26.253704 0.000000 33.147579
RightShoulder -3.261780 -3.271146 3.804447
RightArm 11.881621 -38.487797 63.695945
RightForeArm -19.192437 -0.000000 25.575827
RightHand 0.474826 -0.000000 4.427056
RightHandThumb1 -24.326973 -0.000000 -32.862282
LeftUpLeg 12.746470 17.212200 8.846076
LeftLeg -8.916623 -0.000000 0.000000
LeftFoot -14.680672 28.371766 -7.720073
LeftToeBase 23.019686 -0.000000 -0.000000
RightUpLeg 8.358152 -4.891721 3.187016
RightLeg -4.256575 -0.000000 0.000000
RightFoot -3.538502 -22.748835 5.313680
RightToeBase 13.637696 -0.000000 -0.000000
